<svg width="52" height="41" viewBox="0 0 52 41" fill="none" xmlns="http://www.w3.org/2000/svg">
<path d="M16.9697 19.1735C18.9899 20.0578 20.5657 21.3843 21.697 23.1529C22.8283 24.9216 23.3939 27.0118 23.3939 29.4235C23.3939 32.8804 22.303 35.6941 20.1212 37.8647C17.9394 39.9549 15.1515 41 11.7576 41C8.36364 41 5.53535 39.9147 3.27273 37.7441C1.09091 35.5735 0 32.8 0 29.4235C0 27.8157 0.20202 26.2078 0.60606 24.6C1.0101 22.9922 1.89899 20.5804 3.27273 17.3647L10.303 0H22.303L16.9697 19.1735ZM45.5758 19.1735C47.596 20.0578 49.1717 21.3843 50.303 23.1529C51.4343 24.9216 52 27.0118 52 29.4235C52 32.8804 50.9091 35.6941 48.7273 37.8647C46.5454 39.9549 43.7576 41 40.3636 41C36.9697 41 34.1414 39.9147 31.8788 37.7441C29.697 35.5735 28.6061 32.8 28.6061 29.4235C28.6061 27.8157 28.8081 26.2078 29.2121 24.6C29.6162 22.9922 30.505 20.5804 31.8788 17.3647L38.9091 0H50.9091L45.5758 19.1735Z" fill="#B5FF78"/>
</svg>
